<svg width="118" height="32" viewBox="0 0 118 32" fill="none" xmlns="http://www.w3.org/2000/svg">
<path d="M23.4001 20.6C23.4001 26.9333 18.2668 32 12.0001 32C5.73341 32 0.600098 26.9333 0.600098 20.6C0.600098 14.2667 12.0001 0 12.0001 0C12.0001 0 23.4001 14.3333 23.4001 20.6Z" fill="#168BED"/>
<path d="M12.0001 29C7.4001 29 3.6001 25.2667 3.6001 20.6C3.6001 20.0667 4.06679 19.6 4.6001 19.6C5.13341 19.6 5.6001 20.0667 5.6001 20.6C5.6001 24.1333 8.46678 27 12.0001 27C12.5334 27 13.0001 27.4667 13.0001 28C13.0001 28.5333 12.5334 29 12.0001 29Z" fill="white"/>
<path d="M41.5401 4H51.5401V18H48.4601V6.78H44.4201V7.84C44.4201 10.5733 44.2534 12.6933 43.9201 14.2C43.6001 15.7067 43.1268 16.7467 42.5001 17.32C41.8734 17.8933 41.0001 18.18 39.8801 18.18C39.2534 18.18 38.7134 18.12 38.2601 18L38.4601 15.46C38.6468 15.4867 38.8068 15.5 38.9401 15.5C39.3934 15.5 39.7601 15.4067 40.0401 15.22C40.3334 15.02 40.6001 14.6267 40.8401 14.04C41.0934 13.4533 41.2734 12.58 41.3801 11.42C41.4868 10.2467 41.5401 8.74 41.5401 6.9V4Z" fill="#181A18"/>
<path d="M54.8949 18V4H57.9749V8.76H60.9549C62.5549 8.76 63.8083 9.17333 64.7149 10C65.6216 10.8133 66.0749 11.9133 66.0749 13.3C66.0749 14.74 65.5949 15.8867 64.6349 16.74C63.6883 17.58 62.3949 18 60.7549 18H54.8949ZM60.6949 11.4H57.9749V15.22H60.7149C62.2483 15.22 63.0149 14.5667 63.0149 13.26C63.0149 12.02 62.2416 11.4 60.6949 11.4ZM67.6349 18V4H70.7149V18H67.6349Z" fill="#181A18"/>
<path d="M80.6346 18.24C78.5813 18.24 76.868 17.5467 75.4946 16.16C74.1346 14.76 73.4546 13.04 73.4546 11C73.4546 8.97333 74.1413 7.26 75.5146 5.86C76.888 4.46 78.6346 3.76 80.7546 3.76C81.968 3.76 82.988 3.96 83.8146 4.36C84.6413 4.74667 85.428 5.30667 86.1746 6.04L84.3346 8.16C83.7346 7.61333 83.168 7.22 82.6346 6.98C82.1146 6.72667 81.4813 6.6 80.7346 6.6C79.5613 6.6 78.588 7.02667 77.8146 7.88C77.0546 8.72 76.6746 9.76 76.6746 11C76.6746 12.2267 77.0546 13.2667 77.8146 14.12C78.588 14.9733 79.5613 15.4 80.7346 15.4C81.4813 15.4 82.128 15.2667 82.6746 15C83.2213 14.7333 83.8013 14.32 84.4146 13.76L86.3746 15.86C85.6146 16.6733 84.788 17.2733 83.8946 17.66C83.0146 18.0467 81.928 18.24 80.6346 18.24Z" fill="#181A18"/>
<path d="M88.8403 18V4H95.3403C96.9536 4 98.1736 4.41333 99.0003 5.24C99.6403 5.88 99.9603 6.68667 99.9603 7.66C99.9603 8.98 99.3469 9.98667 98.1203 10.68C98.9869 11.0133 99.6403 11.4533 100.08 12C100.52 12.5333 100.74 13.2533 100.74 14.16C100.74 15.4133 100.274 16.3667 99.3403 17.02C98.4069 17.6733 97.1269 18 95.5003 18H88.8403ZM91.8403 9.66H94.6803C96.1603 9.66 96.9003 9.15333 96.9003 8.14C96.9003 7.67333 96.7269 7.32 96.3803 7.08C96.0336 6.82667 95.5336 6.7 94.8803 6.7H91.8403V9.66ZM91.8403 15.3H95.5003C96.9536 15.3 97.6803 14.78 97.6803 13.74C97.6803 12.7267 96.9203 12.22 95.4003 12.22H91.8403V15.3Z" fill="#181A18"/>
<path d="M102.074 18L108.074 3.9H110.914L116.914 18H113.694L112.414 14.86H106.494L105.214 18H102.074ZM107.594 12.14H111.314L109.454 7.6L107.594 12.14Z" fill="#181A18"/>
<path d="M38.2146 27L39.9031 24.5365L38.2838 22.156H39.5294L40.5467 23.7268L41.5708 22.156H42.7818L41.1625 24.5226L42.851 27H41.6054L40.519 25.3392L39.4256 27H38.2146Z" fill="#181A18"/>
<path d="M47.8225 22.156V27H46.7707V23.8237L44.6531 27H43.6497V22.156H44.7016V25.3323L46.8329 22.156H47.8225Z" fill="#181A18"/>
<path d="M48.9884 27V22.156H50.1371L51.4104 24.2043L52.6837 22.156H53.8324V27H52.7737V23.8376L51.4104 25.9066H51.3827L50.0333 23.8583V27H48.9884Z" fill="#181A18"/>
<path d="M57.8056 27V25.1939C57.3166 25.4338 56.8899 25.5537 56.5254 25.5537C56.0226 25.5537 55.6258 25.4176 55.3352 25.1454C55.0445 24.8733 54.8992 24.4673 54.8992 23.9275V22.156H55.9649V23.6161C55.9649 24.2435 56.2256 24.5572 56.7469 24.5572C57.1851 24.5572 57.5381 24.4534 57.8056 24.2458V22.156H58.8713V27H57.8056Z" fill="#181A18"/>
<path d="M64.2034 22.156V27H63.1516V23.8237L61.0341 27H60.0307V22.156H61.0825V25.3323L63.2139 22.156H64.2034Z" fill="#181A18"/>
<path d="M67.6391 27.083C66.9287 27.083 66.3358 26.8431 65.8607 26.3634C65.3901 25.879 65.1548 25.2838 65.1548 24.578C65.1548 23.8768 65.3924 23.284 65.8676 22.7996C66.3428 22.3152 66.9471 22.073 67.6806 22.073C68.1004 22.073 68.4534 22.1422 68.7394 22.2806C69.0254 22.4143 69.2976 22.6081 69.5559 22.8618L68.9193 23.5954C68.7117 23.4062 68.5156 23.2701 68.3311 23.1871C68.1512 23.0994 67.9321 23.0556 67.6737 23.0556C67.2677 23.0556 66.931 23.2032 66.6634 23.4985C66.4004 23.7891 66.2689 24.149 66.2689 24.578C66.2689 25.0024 66.4004 25.3623 66.6634 25.6575C66.931 25.9528 67.2677 26.1004 67.6737 26.1004C67.9321 26.1004 68.1558 26.0543 68.3449 25.962C68.5341 25.8697 68.7348 25.7267 68.947 25.533L69.6251 26.2596C69.3622 26.541 69.0762 26.7486 68.7671 26.8824C68.4626 27.0161 68.0866 27.083 67.6391 27.083Z" fill="#181A18"/>
<path d="M71.6062 27V23.1386H70.1323V22.156H74.1459V23.1386H72.6719V27H71.6062Z" fill="#181A18"/>
<path d="M74.9654 27V22.156H76.0311V24.2735L77.9964 22.156H79.2835L77.3113 24.2112L79.3735 27H78.0933L76.5916 24.9378L76.0311 25.5191V27H74.9654Z" fill="#181A18"/>
<path d="M79.6051 27L81.6811 22.1214H82.6637L84.7397 27H83.6256L83.1827 25.9136H81.1344L80.6915 27H79.6051ZM81.515 24.9724H82.8021L82.1586 23.4016L81.515 24.9724Z" fill="#181A18"/>
<path d="M87.562 27V22.156H88.7107L89.984 24.2043L91.2573 22.156H92.406V27H91.3472V23.8376L89.984 25.9066H89.9563L88.6069 23.8583V27H87.562Z" fill="#181A18"/>
<path d="M93.5697 27V22.156H97.2235V23.104H94.6285V24.0867H96.9121V25.0347H94.6285V26.052H97.2581V27H93.5697Z" fill="#181A18"/>
<path d="M99.2712 23.1179V23.9621H100.551C101.091 23.9621 101.509 24.0982 101.804 24.3704C102.104 24.638 102.254 25.0024 102.254 25.4638C102.254 25.9528 102.095 26.3311 101.776 26.5986C101.458 26.8662 101.015 27 100.448 27H98.2056V22.156H101.922V23.1179H99.2712ZM100.441 24.8479H99.2712V26.0381H100.448C100.941 26.0381 101.188 25.8328 101.188 25.4222C101.188 25.0393 100.939 24.8479 100.441 24.8479Z" fill="#181A18"/>
<path d="M103.132 27V22.156H106.786V23.104H104.191V24.0867H106.474V25.0347H104.191V26.052H106.82V27H103.132Z" fill="#181A18"/>
<path d="M108.411 22.156H111.871V27H110.806V23.1179H109.408V23.4846C109.408 24.4304 109.35 25.1639 109.235 25.6852C109.124 26.2065 108.96 26.5663 108.744 26.7647C108.527 26.9631 108.225 27.0623 107.837 27.0623C107.62 27.0623 107.433 27.0415 107.277 27L107.346 26.1212C107.41 26.1304 107.466 26.135 107.512 26.135C107.669 26.135 107.796 26.1027 107.892 26.0381C107.994 25.9689 108.086 25.8328 108.169 25.6298C108.257 25.4269 108.319 25.1247 108.356 24.7233C108.393 24.3173 108.411 23.796 108.411 23.1594V22.156Z" fill="#181A18"/>
<path d="M117.205 22.156V27H116.153V23.8237L114.036 27H113.032V22.156H114.084V25.3323L116.215 22.156H117.205Z" fill="#181A18"/>
</svg>
