<svg width="64" height="64" viewBox="0 0 64 64" fill="none" xmlns="http://www.w3.org/2000/svg">
<g clip-path="url(#clip0_514_385)">
<path d="M60.6378 35.3363C60.7295 34.5876 60.7783 33.8343 60.7839 33.0802C60.773 25.0722 56.0497 17.821 48.7294 14.5741C51.1729 10.5479 50.3333 5.34355 46.7475 2.29009C43.1618 -0.763364 37.8903 -0.763364 34.3047 2.29009C30.7191 5.34355 29.8793 10.5479 32.3228 14.5741C25.0025 17.8209 20.2792 25.0722 20.2683 33.0802C20.2712 35.4792 20.7071 37.858 21.5553 40.1021C18.3257 40.9647 15.3979 42.7043 13.096 45.1282C12.4564 45.7679 11.7356 46.5068 10.9551 47.3192L0.89022 58.3576C-0.0094615 59.3447 -0.24161 60.7698 0.298327 61.9915C0.838158 63.2132 2.0484 64.0008 3.384 64H16.672C17.9179 63.9994 19.1013 63.4541 19.9111 62.5073L23.0223 58.8823C23.6283 58.079 24.5751 57.6057 25.5812 57.6028H45.8794C47.2245 57.5643 48.5025 57.0068 49.4458 56.0472L62.7584 42.5065C63.851 41.4007 64.2553 39.7879 63.8137 38.2974C63.372 36.8069 62.1543 35.6748 60.6356 35.3428L60.6378 35.3363ZM40.5262 2.16036C43.2891 2.14361 45.8324 3.6641 47.1254 6.10593C48.4185 8.54775 48.2469 11.5059 46.6802 13.7819C45.7138 13.4804 44.7257 13.2526 43.7247 13.1006V10.4938C45.1924 9.97681 46.0732 8.4767 45.8096 6.9432C45.5459 5.40969 44.2146 4.28992 42.6585 4.2928H38.3937C36.8377 4.28981 35.5064 5.40959 35.2426 6.9432C34.9789 8.4767 35.8598 9.97692 37.3275 10.4938V13.1007C36.3265 13.2538 35.3384 13.4825 34.372 13.7852C32.8035 11.5091 32.6309 8.54967 33.9241 6.10678C35.2175 3.66378 37.762 2.14276 40.5262 2.16036ZM38.3937 8.55757C37.8049 8.55757 37.3275 8.08025 37.3275 7.49135C37.3275 6.90244 37.8048 6.42513 38.3937 6.42513H42.6585C43.2473 6.42513 43.7247 6.90244 43.7247 7.49135C43.7247 8.08025 43.2474 8.55757 42.6585 8.55757H38.3937ZM41.5923 10.69V12.8767C41.2372 12.8575 40.8864 12.8223 40.5261 12.8223C40.1657 12.8223 39.8149 12.8575 39.4598 12.8767V10.69H41.5923ZM40.5262 14.9548C50.5319 14.966 58.6403 23.0744 58.6515 33.0802C58.6461 33.8543 58.5895 34.6272 58.482 35.3939C57.9217 35.5589 57.4014 35.8372 56.9531 36.2116L56.0265 36.9856C57.7476 30.2015 54.8574 23.0865 48.8929 19.4242C42.9284 15.7619 35.2756 16.4035 30.0042 21.0075C24.7327 25.6115 23.0672 33.1084 25.8937 39.5114C25.1533 39.5343 24.4145 39.5948 23.6802 39.6927C22.8372 37.5899 22.403 35.3456 22.4008 33.0801C22.4119 23.0744 30.5204 14.966 40.5262 14.9548ZM54.3867 33.0802C54.3828 35.452 53.7693 37.783 52.605 39.8495L48.2794 43.4682C47.4281 42.2917 46.0606 41.5995 44.6085 41.6098H32.6735C32.4523 41.618 32.2349 41.5495 32.0584 41.4157C30.9813 40.5323 29.7034 39.9274 28.3374 39.6544C25.5837 34.5682 26.2776 28.3069 30.0782 23.9472C33.8788 19.5875 39.9869 18.046 45.4011 20.0802C50.8153 22.1144 54.3971 27.2965 54.3867 33.0802ZM61.2391 41.0063L47.9288 54.547C47.3803 55.1101 46.6363 55.4407 45.8507 55.4703H25.5833C23.9294 55.4688 22.3686 56.2363 21.36 57.5473L18.2926 61.1212C17.8874 61.5948 17.2953 61.8675 16.6719 61.8675H3.384C2.89218 61.8699 2.44559 61.5811 2.24598 61.1316C2.04638 60.6821 2.1314 60.1572 2.46277 59.7938L12.5096 48.7714C13.256 47.9899 13.9661 47.2649 14.6004 46.6304C17.7125 43.3086 22.0995 41.4806 26.6495 41.6097C28.1285 41.6017 29.563 42.1152 30.701 43.0598C31.26 43.5082 31.957 43.7489 32.6735 43.7411H44.6086C45.6254 43.7239 46.5341 44.373 46.8476 45.3404C46.8558 45.3965 46.8691 45.4519 46.8871 45.5057C46.9033 45.5909 46.9137 45.6771 46.918 45.7637C46.9491 46.3486 46.7382 46.9204 46.3349 47.3451C45.9316 47.7699 45.3713 48.0099 44.7856 48.0091H31.9837C31.3949 48.0091 30.9175 48.4865 30.9175 49.0754C30.9175 49.6642 31.3948 50.1416 31.9837 50.1416H44.7835C45.9537 50.1432 47.073 49.6637 47.8795 48.8158C48.6859 47.9679 49.1085 46.8258 49.0482 45.6572V45.6113L58.3241 37.8472C59.2042 37.1067 60.5109 37.1889 61.2913 38.0337C62.0717 38.8785 62.0501 40.1877 61.2423 41.0064H61.2391V41.0063Z" fill="black"/>
<path d="M48.2829 34.188L44.7804 33.1869C44.7804 33.1506 44.791 33.1175 44.791 33.0803C44.7872 32.0511 44.408 31.0587 43.7248 30.289V25.6169C43.7161 23.854 42.2891 22.4271 40.5263 22.4183C38.7598 22.4183 37.3277 23.8504 37.3277 25.6169V30.289C36.2589 31.5021 35.9714 33.2169 36.5862 34.7123C37.2011 36.2077 38.6115 37.2243 40.2246 37.3348C41.8376 37.4454 43.3735 36.6305 44.1865 35.233L47.6965 36.2374C47.7918 36.2652 47.8905 36.2792 47.9897 36.279C48.5207 36.2781 48.9701 35.8867 49.044 35.3608C49.1176 34.8349 48.7931 34.3348 48.2829 34.188ZM39.46 25.6168C39.46 25.028 39.9374 24.5506 40.5263 24.5506C40.8136 24.5496 41.0884 24.6677 41.2854 24.8768C41.4844 25.0713 41.5953 25.3385 41.5925 25.6168V28.9668C40.896 28.765 40.1566 28.765 39.46 28.9668V25.6168ZM40.5263 35.2126C39.3486 35.2126 38.3938 34.2579 38.3938 33.0802C38.3938 31.9025 39.3486 30.9478 40.5263 30.9478C41.704 30.9478 42.6587 31.9025 42.6587 33.0802C42.6586 34.2579 41.7039 35.2126 40.5263 35.2126Z" fill="black"/>
</g>
<defs>
<clipPath id="clip0_514_385">
<rect width="64" height="64" fill="white"/>
</clipPath>
</defs>
</svg>
