<svg width="64" height="64" viewBox="0 0 64 64" fill="none" xmlns="http://www.w3.org/2000/svg">
<g clip-path="url(#clip0_514_398)">
<path d="M29.0583 3.59609C28.9863 3.06346 28.4969 2.68984 27.9634 2.76196C21.5378 3.63096 15.4803 6.66434 10.9068 11.303C6.97138 15.2946 4.24251 20.3688 3.06201 25.8102L1.81413 23.67C1.54351 23.2057 0.947507 23.0487 0.483132 23.3193C0.0188816 23.5901 -0.138118 24.186 0.132632 24.6503L2.73138 29.1075C2.86888 29.3433 3.09938 29.5107 3.36638 29.5683C3.38788 29.5731 3.40963 29.5756 3.43138 29.5788C3.44038 29.5802 3.44901 29.5823 3.45813 29.5835C3.45901 29.5836 3.45988 29.5835 3.46076 29.5836C3.49788 29.5878 3.53501 29.5903 3.57213 29.5903C3.57226 29.5903 3.57238 29.5903 3.57263 29.5903C3.57351 29.5903 3.57438 29.5905 3.57526 29.5905C3.62263 29.5905 3.66913 29.5861 3.71488 29.5793C3.71838 29.5788 3.72188 29.5785 3.72526 29.5778C3.77338 29.5703 3.82026 29.5592 3.86601 29.5448C3.86626 29.5447 3.86651 29.5447 3.86676 29.5446C3.97388 29.5107 4.07376 29.459 4.16213 29.3918L8.34376 26.4266C8.78226 26.1156 8.88563 25.5082 8.57476 25.0698C8.26388 24.6312 7.65638 24.528 7.21788 24.8388L4.90901 26.4761C5.98051 21.2973 8.55463 16.4612 12.2929 12.6696C16.5654 8.33609 22.2233 5.50259 28.2243 4.69096C28.7569 4.61884 29.1303 4.12871 29.0583 3.59609Z" fill="black"/>
<path d="M29.4109 59.8652L26.4264 55.6563C26.1156 55.2177 25.5081 55.1145 25.0696 55.4253C24.6311 55.7363 24.5277 56.3437 24.8386 56.7821L26.5127 59.1431C21.2402 58.0941 16.4493 55.5527 12.5712 51.7298C8.28157 47.501 5.54245 42.1338 4.65032 36.2085C4.5702 35.677 4.07532 35.3101 3.54307 35.3911C3.01157 35.4711 2.64557 35.9668 2.72557 36.4983C3.68095 42.8431 6.61307 48.5893 11.2049 53.1158C15.2626 57.1158 20.2549 59.8048 25.7502 60.9728L23.6697 62.1858C23.2053 62.4566 23.0483 63.0525 23.3191 63.5168C23.4999 63.8271 23.8258 64.0001 24.1607 64.0001C24.3272 64.0001 24.4958 63.9573 24.6499 63.8676L29.1072 61.269C29.3432 61.1313 29.5104 60.901 29.5683 60.634C29.6261 60.367 29.5689 60.0881 29.4109 59.8652Z" fill="black"/>
<path d="M63.8672 39.3502L61.2684 34.893C61.1309 34.657 60.9006 34.4896 60.6336 34.432C60.3665 34.3738 60.0876 34.4313 59.8648 34.5892L55.6561 37.5736C55.2176 37.8846 55.1142 38.492 55.4251 38.9303C55.736 39.369 56.3435 39.4722 56.7819 39.1613L59.0338 37.5645C57.9497 42.9518 55.3125 47.8261 51.3524 51.7298C47.0587 55.9625 41.6461 58.6248 35.6996 59.4292C35.167 59.5013 34.7936 59.9915 34.8656 60.5241C34.9316 61.0125 35.3492 61.3671 35.8288 61.3671C35.8722 61.3671 35.9162 61.3642 35.9605 61.3582C42.3277 60.497 48.1227 57.647 52.7188 53.116C56.9128 48.9816 59.7213 43.8293 60.9046 38.1333L62.1856 40.3306C62.3665 40.6408 62.6923 40.8138 63.0272 40.8138C63.1937 40.8138 63.3623 40.7711 63.5165 40.6813C63.981 40.4103 64.138 39.8145 63.8672 39.3502Z" fill="black"/>
<path d="M61.3163 28.5011C60.5424 22.0538 57.5952 15.9462 53.0173 11.303C48.9488 7.17646 43.7057 4.32196 38.0739 3.12971L40.3304 1.81409C40.7948 1.54334 40.9518 0.94746 40.681 0.483085C40.4104 0.0187105 39.8143 -0.137915 39.3502 0.13246L34.8925 2.73146C34.6565 2.86909 34.4893 3.09946 34.4314 3.36646C34.3737 3.63346 34.4308 3.91234 34.5888 4.13521L37.5732 8.34396C37.7631 8.61159 38.0632 8.75434 38.368 8.75434C38.5627 8.75434 38.7593 8.69609 38.9302 8.57484C39.3687 8.26384 39.472 7.65646 39.1612 7.21809L37.6023 5.01959C42.8889 6.12409 47.8133 8.79734 51.6312 12.6696C55.9078 17.0071 58.661 22.712 59.3837 28.7331C59.443 29.2275 59.863 29.5905 60.3488 29.5905C60.3874 29.5905 60.4265 29.5882 60.4659 29.5833C60.9997 29.5193 61.3803 29.0347 61.3163 28.5011Z" fill="black"/>
<path d="M35.9246 38.3633C35.4893 38.0607 34.8912 38.1678 34.5883 38.603L30.5563 44.3984L33.8652 34.8139C33.9666 34.5206 33.9197 34.1964 33.7396 33.9436C33.5595 33.6909 33.2682 33.5408 32.9578 33.5408H23.7456L26.4447 29.6613C26.7475 29.226 26.6402 28.6279 26.205 28.3251C25.7698 28.0225 25.1715 28.1298 24.8687 28.5649L21.1203 33.9525C20.9163 34.2458 20.8921 34.6284 21.0576 34.9452C21.2231 35.262 21.551 35.4606 21.9083 35.4606H31.6108L26.4811 50.3191C26.3246 50.772 26.5263 51.271 26.9536 51.4881C27.0922 51.5586 27.241 51.5924 27.3878 51.5924C27.6936 51.5924 27.9916 51.4464 28.1766 51.1805L36.1643 39.6994C36.4671 39.2641 36.3598 38.666 35.9246 38.3633Z" fill="black"/>
<path d="M42.9424 29.0552C42.7769 28.7383 42.449 28.5397 42.0916 28.5397H32.3891L37.5189 13.6812C37.6754 13.2283 37.4736 12.7293 37.0464 12.5122C36.6191 12.2949 36.0972 12.4263 35.8235 12.8198L27.4557 24.847C27.153 25.2823 27.2602 25.8804 27.6955 26.1832C28.1307 26.4859 28.729 26.3785 29.0317 25.9434L33.4437 19.6018L30.1349 29.1863C30.0335 29.4795 30.0804 29.8038 30.2605 30.0565C30.4406 30.3093 30.7319 30.4594 31.0422 30.4594H40.2545L37.2124 34.8318C36.9096 35.267 37.0169 35.8652 37.4521 36.1679C37.6192 36.2842 37.8102 36.34 37.9995 36.34C38.303 36.34 38.6017 36.1963 38.7884 35.9283L42.8796 30.0478C43.0836 29.7545 43.1079 29.3719 42.9424 29.0552Z" fill="black"/>
</g>
<defs>
<clipPath id="clip0_514_398">
<rect width="64" height="64" fill="white"/>
</clipPath>
</defs>
</svg>
