<svg width="256" height="256" viewBox="0 0 256 256" fill="none" xmlns="http://www.w3.org/2000/svg">
<g clip-path="url(#clip0_513_315)">
<path d="M200.659 2.06458H107.966C96.3386 2.06458 85.8386 9.03433 81.3286 19.7541L60.5201 69.1734C57.4677 76.4194 51.5967 82.1109 44.254 84.9335L20.5907 94.0343C9.43139 98.3287 2.06445 109.052 2.06445 121.014V225.032C2.06445 240.996 15.004 253.936 30.9677 253.936H225.032C240.996 253.936 253.935 240.996 253.935 225.032V101.631C253.935 95.8549 252.923 90.1291 250.954 84.6997L227.823 21.0908C223.669 9.66538 212.814 2.06458 200.659 2.06458Z" fill="#8D7BD4"/>
<path d="M30.9677 245.677H225.032C240.996 245.677 253.935 232.738 253.935 216.774V225.032C253.935 240.996 240.996 253.935 225.032 253.935H30.9677C15.004 253.935 2.06445 240.996 2.06445 225.032V216.774C2.06445 232.738 15.004 245.677 30.9677 245.677Z" fill="#826EC8"/>
<path d="M20.5907 94.0343L44.254 84.9335C51.5927 82.1109 57.4677 76.4194 60.5201 69.1734L81.3286 19.7541C85.8386 9.03433 96.3346 2.06458 107.966 2.06458H200.659C212.814 2.06458 223.669 9.66538 227.823 21.0908L250.954 84.6997C252.927 90.1251 253.935 95.8549 253.935 101.631V109.889C253.935 104.113 252.923 98.3872 250.954 92.9577L227.823 29.3488C223.669 17.9234 212.814 10.3226 200.659 10.3226H107.966C96.3386 10.3226 85.8386 17.2924 81.3286 28.0122L60.5201 77.4315C57.4677 84.6775 51.5967 90.369 44.254 93.1916L20.5907 102.292C9.43139 106.587 2.06445 117.311 2.06445 129.272V121.014C2.06445 109.052 9.43139 98.3287 20.5907 94.0343Z" fill="#968CD2"/>
<path d="M216.774 229.161C223.617 229.161 229.161 223.617 229.161 216.774V103.085C229.161 99.2379 228.488 95.4133 227.171 91.7963L206.518 34.9939C204.738 30.0967 200.085 26.8387 194.873 26.8387H113.45C108.466 26.8387 103.97 29.8246 102.032 34.4193L83.3447 78.7903C77.7217 92.1673 66.7136 102.843 53.1491 108.056L34.7781 115.125C29.9939 116.964 26.8386 121.558 26.8386 126.687V216.774C26.8386 223.617 32.383 229.161 39.2257 229.161H216.774Z" fill="#968CD2"/>
<path d="M212.645 220.903C217.208 220.903 220.903 217.208 220.903 212.645V103.081C220.903 100.196 220.399 97.3287 219.413 94.6129L198.756 37.8145C198.165 36.1875 196.605 35.0968 194.873 35.0968H116.187C112.863 35.0968 109.865 37.0867 108.577 40.1512L90.9535 81.994C84.4676 97.4335 71.766 109.746 56.1128 115.766L40.391 121.815C37.2015 123.04 35.0967 126.105 35.0967 129.52V212.645C35.0967 217.208 38.7922 220.903 43.3547 220.903H212.645Z" fill="#A99BE0"/>
<path d="M225.032 256H30.9677C13.8891 256 0 242.111 0 225.032V121.014C0 108.292 7.97782 96.6774 19.8528 92.1109L43.5121 83.006C50.2964 80.3972 55.8004 75.0665 58.6109 68.373L79.4214 18.9516C84.2702 7.43952 95.4718 0 107.962 0H200.655C213.631 0 225.329 8.19153 229.76 20.3851L252.891 83.9919C254.956 89.6573 256 95.5948 256 101.631V225.032C256 242.111 242.111 256 225.032 256ZM107.962 4.12903C97.1351 4.12903 87.4274 10.5786 83.2298 20.5544L62.4194 69.9738C59.1734 77.6956 52.8226 83.8528 44.9939 86.8629L21.3347 95.9677C11.0444 99.9234 4.12903 109.99 4.12903 121.014V225.032C4.12903 239.831 16.1694 251.871 30.9677 251.871H225.032C239.831 251.871 251.871 239.831 251.871 225.032V101.631C251.871 96.0746 250.909 90.6149 249.014 85.4052L225.883 21.7964C222.038 11.2319 211.901 4.12903 200.659 4.12903H107.962Z" fill="#785AE6"/>
<path d="M216.774 231.226H39.2258C31.256 231.226 24.7742 224.744 24.7742 216.774V126.687C24.7742 120.75 28.4939 115.333 34.0363 113.198L52.4052 106.129C65.4496 101.111 76.0322 90.8548 81.4415 77.9899L100.129 33.6189C102.395 28.2419 107.619 24.7742 113.45 24.7742H194.877C200.935 24.7742 206.393 28.5968 208.458 34.2883L229.115 91.0907C230.516 94.9516 231.226 98.9859 231.226 103.085V216.774C231.226 224.744 224.744 231.226 216.774 231.226ZM113.45 28.9032C109.286 28.9032 105.554 31.3851 103.935 35.2197L85.252 79.5907C79.4092 93.4899 67.9758 104.569 53.8911 109.986L35.5222 117.054C31.5625 118.573 28.9032 122.446 28.9032 126.687V216.774C28.9032 222.464 33.5322 227.097 39.2258 227.097H216.774C222.468 227.097 227.097 222.464 227.097 216.774V103.085C227.097 99.4677 226.47 95.9052 225.234 92.502L204.577 35.6996C203.099 31.633 199.202 28.9032 194.873 28.9032H113.45Z" fill="#785AE6"/>
<path d="M183.742 121.806H204.387V187.871H183.742V121.806Z" fill="#AAD2FF"/>
<path d="M206.452 189.935H181.677V119.742H206.452V189.935ZM185.807 185.806H202.323V123.871H185.807V185.806Z" fill="#785AE6"/>
<path d="M150.71 47.4839H237.419V64H150.71V47.4839Z" fill="#F0DC78"/>
<path d="M150.71 47.4839H237.419V55.742H150.71V47.4839Z" fill="#FFFA96"/>
<path d="M237.419 64H150.71L183.742 121.806H204.387L237.419 64Z" fill="#AAD2FF"/>
<path d="M232.7 72.2581L237.419 64H150.71L155.429 72.2581H232.7Z" fill="#BEE6FF"/>
<path d="M204.387 123.871H183.742C182.998 123.871 182.317 123.474 181.946 122.831L148.913 65.0242C148.736 64.7097 148.645 64.3589 148.645 64V47.4839C148.645 46.3448 149.571 45.4194 150.71 45.4194H237.419C238.559 45.4194 239.484 46.3448 239.484 47.4839V64C239.484 64.3589 239.393 64.7097 239.216 65.0242L206.184 122.831C205.813 123.474 205.131 123.871 204.387 123.871ZM184.94 119.742H203.19L235.355 63.4516V49.5484H152.774V63.4516L184.94 119.742Z" fill="#785AE6"/>
<path d="M193.998 38.9657C192.859 38.9657 191.934 38.0403 191.934 36.9012V7.2923C191.934 6.15319 192.859 5.22778 193.998 5.22778C195.137 5.22778 196.063 6.15319 196.063 7.2923V36.9012C196.063 38.0403 195.143 38.9657 193.998 38.9657Z" fill="#785AE6"/>
<path d="M220.837 38.9657C220.619 38.9657 220.403 38.9335 220.186 38.8589C219.103 38.5 218.52 37.3266 218.879 36.248L219.611 34.0605C224.397 19.7077 237.774 10.0625 252.903 10.0625H253.869C255.008 10.0625 255.933 10.9879 255.933 12.127C255.933 13.2661 255.008 14.1915 253.869 14.1915H252.903C239.554 14.1915 227.75 22.7016 223.53 35.3649L222.798 37.5544C222.51 38.4214 221.7 38.9657 220.837 38.9657Z" fill="#785AE6"/>
<path d="M167.159 38.9657C166.296 38.9657 165.492 38.4214 165.198 37.5544L164.468 35.3649C160.248 22.7016 148.444 14.1915 135.093 14.1915H134.127C132.988 14.1915 132.062 13.2661 132.062 12.127C132.062 10.9879 132.988 10.0625 134.127 10.0625H135.093C150.222 10.0625 163.601 19.7077 168.385 34.0605L169.117 36.248C169.476 37.3306 168.889 38.5 167.812 38.8589C167.597 38.9335 167.379 38.9657 167.159 38.9657Z" fill="#785AE6"/>
<path d="M175.484 66.0645H150.71C149.571 66.0645 148.645 65.1391 148.645 64C148.645 62.8609 149.571 61.9355 150.71 61.9355H175.484C176.623 61.9355 177.548 62.8609 177.548 64C177.548 65.1391 176.623 66.0645 175.484 66.0645Z" fill="#785AE6"/>
<path d="M196.129 66.0645H187.871C186.732 66.0645 185.806 65.1391 185.806 64C185.806 62.8609 186.732 61.9355 187.871 61.9355H196.129C197.268 61.9355 198.193 62.8609 198.193 64C198.193 65.1391 197.268 66.0645 196.129 66.0645Z" fill="#785AE6"/>
<path d="M237.419 66.0645H229.161C228.022 66.0645 227.097 65.1391 227.097 64C227.097 62.8609 228.022 61.9355 229.161 61.9355H237.419C238.558 61.9355 239.484 62.8609 239.484 64C239.484 65.1391 238.558 66.0645 237.419 66.0645Z" fill="#785AE6"/>
<path d="M167.036 245.677H212.405V253.935H167.036V245.677Z" fill="#FFB4BE"/>
<path d="M212.405 233.171V253.935H167.036V233.171C167.036 233.171 154.839 220.903 154.839 200.258C154.839 179.613 167.226 175.484 167.226 163.097V142.452C167.226 140.173 169.077 138.323 171.355 138.323C178.197 138.323 183.742 143.867 183.742 150.71V175.484L210.96 151.667C214.23 148.806 219.165 148.968 222.238 152.044L224.375 154.181C227.159 156.966 227.593 161.325 225.407 164.605L220.903 171.355L227.774 181.661C228.677 183.02 229.161 184.613 229.161 186.24V219.859C229.161 223.022 227.357 225.907 224.512 227.286L212.405 233.171Z" fill="#FFB4BE"/>
<path d="M183.742 183.742L210.96 159.925C214.23 157.065 219.165 157.226 222.238 160.302L224.375 162.44C224.891 162.956 225.3 163.542 225.655 164.149C227.522 160.933 227.038 156.841 224.375 154.181L222.238 152.044C219.161 148.968 214.23 148.806 210.96 151.667L183.742 175.484V183.742Z" fill="#FFC8D2"/>
<path d="M171.355 146.581C178.198 146.581 183.742 152.125 183.742 158.968V150.71C183.742 143.867 178.198 138.323 171.355 138.323C169.077 138.323 167.226 140.173 167.226 142.452V150.71C167.226 148.431 169.077 146.581 171.355 146.581Z" fill="#FFC8D2"/>
<path d="M167.036 245.677H212.405V253.935H167.036V245.677Z" fill="#F0A0AA"/>
<path d="M212.405 256H167.036C165.897 256 164.972 255.075 164.972 253.935V233.98C162.411 231.119 152.774 219.091 152.774 200.258C152.774 188.04 157.026 181.129 160.446 175.575C163.081 171.296 165.161 167.919 165.161 163.097V142.452C165.161 139.036 167.939 136.258 171.355 136.258C179.325 136.258 185.806 142.74 185.806 150.71V170.933L209.603 150.115C213.673 146.556 219.863 146.754 223.698 150.587L225.837 152.724C229.302 156.19 229.847 161.667 227.125 165.748L223.385 171.355L229.492 180.518C230.623 182.222 231.226 184.2 231.226 186.244V219.867C231.226 223.794 228.942 227.435 225.415 229.153L214.474 234.468V253.935C214.47 255.075 213.55 256 212.405 256ZM169.101 251.871H210.341V233.171C210.341 232.381 210.79 231.659 211.502 231.312L223.607 225.433C225.73 224.405 227.097 222.216 227.097 219.863V186.24C227.097 185.014 226.738 183.829 226.056 182.8L219.185 172.494C218.724 171.8 218.724 170.897 219.185 170.204L223.689 163.448C225.321 161 224.996 157.712 222.913 155.631L220.776 153.492C218.476 151.198 214.76 151.069 212.314 153.208L185.097 177.028C184.49 177.56 183.627 177.69 182.883 177.355C182.147 177.028 181.677 176.292 181.677 175.484V150.71C181.677 145.02 177.048 140.387 171.355 140.387C170.22 140.387 169.29 141.312 169.29 142.452V163.097C169.29 169.089 166.702 173.292 163.964 177.738C160.653 183.115 156.903 189.21 156.903 200.258C156.903 219.825 168.381 231.597 168.502 231.714C168.885 232.101 169.105 232.621 169.105 233.171V251.871H169.101Z" fill="#785AE6"/>
<path d="M119.742 57.8065C119.742 60.0867 117.893 61.9355 115.613 61.9355C113.333 61.9355 111.484 60.0867 111.484 57.8065C111.484 55.5262 113.333 53.6774 115.613 53.6774C117.893 53.6774 119.742 55.5262 119.742 57.8065Z" fill="#968CD2"/>
<path d="M148.645 78.4516C148.645 80.7318 146.796 82.5806 144.516 82.5806C142.236 82.5806 140.387 80.7318 140.387 78.4516C140.387 76.1714 142.236 74.3226 144.516 74.3226C146.796 74.3226 148.645 76.1714 148.645 78.4516Z" fill="#968CD2"/>
<path d="M103.226 94.9678C103.226 97.248 101.377 99.0968 99.0968 99.0968C96.8166 99.0968 94.9678 97.248 94.9678 94.9678C94.9678 92.6875 96.8166 90.8387 99.0968 90.8387C101.377 90.8387 103.226 92.6875 103.226 94.9678Z" fill="#968CD2"/>
<path d="M132.129 107.355C132.129 109.635 130.28 111.484 128 111.484C125.72 111.484 123.871 109.635 123.871 107.355C123.871 105.075 125.72 103.226 128 103.226C130.28 103.226 132.129 105.075 132.129 107.355Z" fill="#968CD2"/>
<path d="M136.258 169.29C136.258 171.571 134.409 173.419 132.129 173.419C129.849 173.419 128 171.571 128 169.29C128 167.01 129.849 165.161 132.129 165.161C134.409 165.161 136.258 167.01 136.258 169.29Z" fill="#968CD2"/>
<path d="M94.9678 173.419C94.9678 175.7 93.119 177.548 90.8387 177.548C88.5585 177.548 86.7097 175.7 86.7097 173.419C86.7097 171.139 88.5585 169.29 90.8387 169.29C93.119 169.29 94.9678 171.139 94.9678 173.419Z" fill="#968CD2"/>
<path d="M107.355 202.323C107.355 204.603 105.506 206.452 103.226 206.452C100.946 206.452 99.0969 204.603 99.0969 202.323C99.0969 200.042 100.946 198.194 103.226 198.194C105.506 198.194 107.355 200.042 107.355 202.323Z" fill="#968CD2"/>
<path d="M148.645 202.323C148.645 204.603 146.796 206.452 144.516 206.452C142.236 206.452 140.387 204.603 140.387 202.323C140.387 200.042 142.236 198.194 144.516 198.194C146.796 198.194 148.645 200.042 148.645 202.323Z" fill="#968CD2"/>
<path d="M70.1936 206.452C70.1936 208.732 68.3448 210.581 66.0646 210.581C63.7843 210.581 61.9355 208.732 61.9355 206.452C61.9355 204.171 63.7843 202.323 66.0646 202.323C68.3448 202.323 70.1936 204.171 70.1936 206.452Z" fill="#968CD2"/>
<path d="M70.1936 132.129C70.1936 134.409 68.3448 136.258 66.0646 136.258C63.7843 136.258 61.9355 134.409 61.9355 132.129C61.9355 129.849 63.7843 128 66.0646 128C68.3448 128 70.1936 129.849 70.1936 132.129Z" fill="#968CD2"/>
<path d="M103.226 140.387C103.226 142.667 101.377 144.516 99.0968 144.516C96.8166 144.516 94.9678 142.667 94.9678 140.387C94.9678 138.107 96.8166 136.258 99.0968 136.258C101.377 136.258 103.226 138.107 103.226 140.387Z" fill="#968CD2"/>
<path d="M152.774 136.258C152.774 138.538 150.925 140.387 148.645 140.387C146.365 140.387 144.516 138.538 144.516 136.258C144.516 133.978 146.365 132.129 148.645 132.129C150.925 132.129 152.774 133.978 152.774 136.258Z" fill="#968CD2"/>
<path d="M165.161 111.484C165.161 113.764 163.313 115.613 161.032 115.613C158.752 115.613 156.903 113.764 156.903 111.484C156.903 109.204 158.752 107.355 161.032 107.355C163.313 107.355 165.161 109.204 165.161 111.484Z" fill="#968CD2"/>
<path d="M53.6775 173.419C53.6775 175.7 51.8287 177.548 49.5485 177.548C47.2682 177.548 45.4194 175.7 45.4194 173.419C45.4194 171.139 47.2682 169.29 49.5485 169.29C51.8287 169.29 53.6775 171.139 53.6775 173.419Z" fill="#968CD2"/>
<path d="M20.6453 4.12903L26.484 14.8064L37.1614 20.6452L26.484 26.4839L20.6453 37.1613L14.8066 26.4839L4.12915 20.6452L14.8066 14.8064L20.6453 4.12903Z" fill="#FFE885"/>
<path d="M14.8066 18.9355L20.6453 12.3871L26.484 18.9355L37.1614 20.6452L26.484 14.8064L20.6453 4.12903L14.8066 14.8064L4.12915 20.6452L14.8066 18.9355Z" fill="#FFFA96"/>
<path d="M20.6451 39.2258C19.889 39.2258 19.1955 38.8125 18.8366 38.1533L13.2862 28.0081L3.13703 22.4537C2.47776 22.0948 2.06445 21.4012 2.06445 20.6452C2.06445 19.8891 2.47776 19.1956 3.13703 18.8367L13.2862 13.2863L18.8366 3.13712C19.5624 1.81253 21.7318 1.81253 22.4576 3.13712L28.008 13.2823L38.1572 18.8327C38.8124 19.1956 39.2257 19.8891 39.2257 20.6452C39.2257 21.4012 38.8124 22.0948 38.1532 22.4537L28.004 28.0081L22.4536 38.1533C22.0947 38.8125 21.4011 39.2258 20.6451 39.2258ZM8.43139 20.6452L15.7983 24.6754C16.1451 24.8609 16.4294 25.1452 16.6149 25.492L20.6451 32.8589L24.6753 25.492C24.8608 25.1452 25.1451 24.8609 25.4919 24.6754L32.8588 20.6452L25.4919 16.6149C25.1451 16.4295 24.8608 16.1452 24.6753 15.7984L20.6451 8.43148L16.6149 15.7984C16.4294 16.1452 16.1451 16.4295 15.7983 16.6149L8.43139 20.6452Z" fill="#785AE6"/>
<path d="M53.6775 53.6774L59.5162 64.3548L70.1936 70.1936L59.5162 76.0323L53.6775 86.7097L47.8388 76.0323L37.1614 70.1936L47.8388 64.3548L53.6775 53.6774Z" fill="#FFE885"/>
<path d="M47.8388 68.4839L53.6775 61.9355L59.5162 68.4839L70.1936 70.1936L59.5162 64.3548L53.6775 53.6774L47.8388 64.3548L37.1614 70.1936L47.8388 68.4839Z" fill="#FFFA96"/>
<path d="M53.6773 88.7742C52.9213 88.7742 52.2277 88.3609 51.8689 87.7016L46.3185 77.5565L36.1693 72.002C35.51 71.6432 35.0967 70.9496 35.0967 70.1936C35.0967 69.4375 35.51 68.744 36.1693 68.3851L46.3185 62.8347L51.8689 52.6916C52.5947 51.3649 54.764 51.3649 55.4898 52.6916L61.0402 62.8347L71.1894 68.3851C71.8447 68.744 72.258 69.4375 72.258 70.1936C72.258 70.9496 71.8447 71.6432 71.1854 72.002L61.0362 77.5524L55.4858 87.6956C55.1269 88.3609 54.4334 88.7742 53.6773 88.7742ZM41.4636 70.1936L48.8306 74.2238C49.1773 74.4133 49.4576 74.6976 49.6471 75.0444L53.6773 82.4073L57.7076 75.0403C57.8971 74.6936 58.1773 74.4093 58.5241 74.2198L65.891 70.1936L58.5241 66.1633C58.1773 65.9738 57.8971 65.6895 57.7076 65.3428L53.6773 57.9799L49.6471 65.3468C49.4576 65.6936 49.1773 65.9778 48.8306 66.1674L41.4636 70.1936Z" fill="#785AE6"/>
</g>
<defs>
<clipPath id="clip0_513_315">
<rect width="256" height="256" fill="white"/>
</clipPath>
</defs>
</svg>
