<svg width="32" height="32" viewBox="0 0 32 32" fill="none" xmlns="http://www.w3.org/2000/svg">
<g clip-path="url(#clip0_522_283)">
<path d="M16 32C24.8366 32 32 24.8366 32 16C32 7.16344 24.8366 0 16 0C7.16344 0 0 7.16344 0 16C0 24.8366 7.16344 32 16 32Z" fill="#168BED"/>
<path fill-rule="evenodd" clip-rule="evenodd" d="M15.3957 23.0175H16.6515C16.6515 23.0175 17.0308 22.9759 17.2245 22.7671C17.4028 22.5755 17.3971 22.2155 17.3971 22.2155C17.3971 22.2155 17.3725 20.5305 18.1546 20.2823C18.9255 20.0379 19.9155 21.9109 20.9648 22.6311C21.7583 23.1761 22.3612 23.0566 22.3612 23.0566L25.1669 23.0175C25.1669 23.0175 26.6346 22.9271 25.9387 21.7732C25.8816 21.6787 25.5334 20.9195 23.8526 19.3594C22.0934 17.7265 22.329 17.9906 24.4481 15.1661C25.7387 13.446 26.2547 12.3958 26.0936 11.9461C25.9398 11.5177 24.9906 11.6309 24.9906 11.6309L21.8316 11.6506C21.8316 11.6506 21.5974 11.6186 21.4237 11.7225C21.254 11.8243 21.1448 12.0616 21.1448 12.0616C21.1448 12.0616 20.6448 13.3927 19.978 14.5247C18.5713 16.9134 18.0088 17.0394 17.779 16.8911C17.2442 16.5454 17.3777 15.5024 17.3777 14.7614C17.3777 12.4466 17.7288 11.4814 16.694 11.2316C16.3506 11.1486 16.0979 11.0938 15.2197 11.085C14.0926 11.0733 13.1385 11.0884 12.5983 11.3531C12.2389 11.5291 11.9617 11.9212 12.1306 11.9438C12.3393 11.9717 12.8122 12.0713 13.0629 12.4127C13.3866 12.853 13.3752 13.8422 13.3752 13.8422C13.3752 13.8422 13.5612 16.5671 12.9409 16.9057C12.515 17.1378 11.9309 16.6638 10.6768 14.4967C10.0342 13.3867 9.54908 12.1597 9.54908 12.1597C9.54908 12.1597 9.45553 11.9304 9.28868 11.8077C9.08617 11.6591 8.80324 11.6118 8.80324 11.6118L5.80135 11.6315C5.80135 11.6315 5.35071 11.644 5.18528 11.84C5.03811 12.0142 5.17359 12.3747 5.17359 12.3747C5.17359 12.3747 7.52376 17.8731 10.1848 20.644C12.6248 23.1844 15.3957 23.0175 15.3957 23.0175Z" fill="white"/>
</g>
<defs>
<clipPath id="clip0_522_283">
<rect width="32" height="32" fill="white"/>
</clipPath>
</defs>
</svg>
