<svg width="256" height="256" viewBox="0 0 256 256" fill="none" xmlns="http://www.w3.org/2000/svg">
<g clip-path="url(#clip0_513_301)">
<path d="M128 256C104.504 256 81.579 249.018 61.5255 236.728L5.1875 250.805L19.2795 194.467C6.9895 174.413 0 151.503 0 128C0 57.695 57.702 0 128 0C198.298 0 256 57.695 256 128C256 198.305 198.298 256 128 256Z" fill="#00D5FF"/>
<path d="M256 128C256 57.695 198.298 0 128 0V256C198.298 256 256 198.305 256 128Z" fill="#00AAFF"/>
<path d="M128 90.5C115.593 90.5 105.5 80.407 105.5 68C105.5 55.593 115.593 45.5 128 45.5C140.407 45.5 150.5 55.593 150.5 68C150.5 80.407 140.407 90.5 128 90.5Z" fill="#ECF2FF"/>
<path d="M158 195.5H98V180.5C102.131 180.5 105.5 177.138 105.5 173V128C105.5 123.862 102.131 120.5 98 120.5V105.5H150.5V173C150.5 177.138 153.869 180.5 158 180.5V195.5Z" fill="#ECF2FF"/>
<path d="M150.5 68C150.5 55.593 140.407 45.5 128 45.5V90.5C140.407 90.5 150.5 80.407 150.5 68Z" fill="#D9E5FF"/>
<path d="M150.5 173V105.5H128V195.5H158V180.5C153.869 180.5 150.5 177.138 150.5 173Z" fill="#D9E5FF"/>
</g>
<defs>
<clipPath id="clip0_513_301">
<rect width="256" height="256" fill="white"/>
</clipPath>
</defs>
</svg>
