<svg width="64" height="64" viewBox="0 0 64 64" fill="none" xmlns="http://www.w3.org/2000/svg">
<path d="M32.25 64C32.1709 64 32.0918 63.9927 32.0137 63.9775C24.4302 62.519 17.5449 58.437 12.6265 52.4829C7.7085 46.5288 5 38.9966 5 31.2739V9.39648C5 8.8501 5.35498 8.3667 5.87646 8.20361L31.8369 0.0703125C31.9683 0.024414 32.1123 0.00292969 32.25 0H32.2515C32.3931 0 32.5322 0.024414 32.6636 0.0703125L58.6235 8.20361C59.145 8.36719 59.5 8.8501 59.5 9.39648V31.2739C59.5 38.9966 56.7915 46.5288 51.873 52.4829C46.9551 58.437 40.0698 62.519 32.4863 63.9775C32.4082 63.9927 32.3291 64 32.25 64ZM7.5 10.3145V31.2739C7.5 45.937 17.894 58.6001 32.25 61.4761C46.606 58.6001 56.9995 45.937 56.9995 31.2739V10.3145L32.25 2.56055L7.5 10.3145Z" fill="black"/>
<path d="M32.25 56.8345C32.1484 56.8345 32.0469 56.8223 31.9482 56.7979C26.3047 55.3936 21.2124 52.0889 17.6084 47.4927C13.9917 42.8794 12 37.1196 12 31.2739V14.5386C12 13.9922 12.355 13.5093 12.876 13.3462L31.876 7.39355C32.1191 7.31738 32.3804 7.31738 32.6235 7.39355L51.6235 13.3462C52.1445 13.5093 52.4995 13.9922 52.4995 14.5386V31.2739C52.4995 35.5469 51.4409 39.8003 49.4385 43.5742C49.1147 44.1841 48.3584 44.4155 47.7485 44.0923C47.1387 43.7686 46.9067 43.0122 47.23 42.4023C49.042 38.9883 49.9995 35.1401 49.9995 31.2739V15.457L32.2495 9.896L14.5 15.457V31.2739C14.5 42.125 21.7832 51.5469 32.2495 54.2944C35.1572 53.5312 37.8589 52.2397 40.2847 50.4531C40.8403 50.0439 41.623 50.1626 42.0322 50.7183C42.4419 51.2739 42.3232 52.0566 41.7671 52.4658C38.9932 54.5093 35.8926 55.9663 32.5513 56.7979C32.4526 56.8223 32.3511 56.8345 32.25 56.8345Z" fill="black"/>
<path d="M29.9795 41.4073C29.6592 41.4073 29.3398 41.2852 29.0957 41.0411L20.7251 32.6705C20.2368 32.1827 20.2368 31.3912 20.7251 30.9029L24.9678 26.6602C25.2021 26.4258 25.52 26.294 25.8516 26.294C26.1831 26.294 26.501 26.4258 26.7354 26.6602L29.9795 29.9044L37.7642 22.1192C38.2524 21.6314 39.0439 21.6309 39.5322 22.1192L43.7749 26.3619C44.0093 26.5963 44.1411 26.9141 44.1411 27.2457C44.1411 27.5772 44.0093 27.8951 43.7749 28.1295L30.8633 41.0411C30.6191 41.2852 30.2993 41.4073 29.9795 41.4073ZM23.3765 31.7867L29.9795 38.3892L41.123 27.2457L38.6479 24.7711L30.8633 32.5562C30.6289 32.7906 30.311 32.9219 29.9795 32.9219C29.6479 32.9219 29.3301 32.7906 29.0957 32.5562L25.8516 29.3121L23.3765 31.7867Z" fill="black"/>
<path d="M45.1523 48.8877C44.8237 48.8877 44.501 48.7549 44.2686 48.5215C44.0361 48.2891 43.9023 47.9663 43.9023 47.6377C43.9023 47.3091 44.0361 46.9863 44.2686 46.7539C44.501 46.5215 44.8237 46.3877 45.1523 46.3877C45.481 46.3877 45.8037 46.5215 46.0361 46.7539C46.2686 46.9863 46.4023 47.3091 46.4023 47.6377C46.4023 47.9663 46.2686 48.2891 46.0361 48.5215C45.8037 48.7549 45.481 48.8877 45.1523 48.8877Z" fill="black"/>
</svg>
